<?xml version="1.0" encoding="utf-8"?>
<!-- Generator: Adobe Illustrator 23.1.0, SVG Export Plug-In . SVG Version: 6.00 Build 0)  -->
<svg version="1.1" id="Layer_1" xmlns="http://www.w3.org/2000/svg" xmlns:xlink="http://www.w3.org/1999/xlink" x="0px" y="0px"
	 viewBox="0 0 180 60" style="enable-background:new 0 0 180 60;" xml:space="preserve">
<style type="text/css">
	.st0{fill:#262363;}
	.st1{fill:#D21872;}
</style>
<path class="st0" d="M29.5,11.4c0-0.63,0.35-0.94,1.03-0.94h7.17c0.69,0,1.03,0.31,1.03,0.94v35.44c0,0.63-0.34,0.94-1.03,0.94
	h-7.17c-0.69,0-1.03-0.31-1.03-0.94V32.85H16.59v13.99c0,0.63-0.34,0.94-1.03,0.94H8.39c-0.69,0-1.03-0.31-1.03-0.94V11.4
	c0-0.63,0.35-0.94,1.03-0.94h7.17c0.69,0,1.03,0.31,1.03,0.94v13.67H29.5V11.4z"/>
<path class="st0" d="M69.95,36.2c0,0.57-0.34,0.89-1.03,0.89H52.68v-0.02c0,2.66,1.89,4.02,4.93,4.02c2.87,0,5.22-0.78,7.29-1.88
	c0.52-0.37,0.97-0.26,1.32,0.21l2.98,3.6c0.34,0.47,0.34,0.94-0.17,1.3c-2.93,2.04-6.66,3.45-11.7,3.45
	c-7.46,0-13.48-3.6-13.48-10.86V32.9c0-7.78,6.02-11.59,13.31-11.59c7.06,0,12.79,3.7,12.79,11.59V36.2z M57.1,27.56
	c-2.64,0-4.42,1.25-4.42,4.12v0.24h8.84v-0.24C61.52,28.86,59.68,27.56,57.1,27.56"/>
<path class="st0" d="M76.1,47.78c-0.69,0-1.03-0.37-1.03-0.94V24.55c0-0.52,0.23-0.89,0.74-1.1c3.5-1.31,7.98-2.14,12.05-2.14
	c8.72,0,13.65,4.28,13.65,12.11v13.41c0,0.57-0.34,0.94-1.03,0.94H93.7c-0.68,0-1.03-0.37-1.03-0.94V33.42
	c0-3.81-1.78-5.01-4.82-5.01c-1.61,0-3.1,0.21-4.02,0.47v17.95c0,0.57-0.34,0.94-0.97,0.94H76.1z"/>
<path class="st0" d="M117.23,47.77c-6.77,0-10.61-3.76-10.61-10.13V10.71c0-0.63,0.34-0.94,1.03-0.94l6.77,1.71
	c0.67,0.19,0.97,0.31,0.97,0.94v24.23c0,2.61,1.15,3.81,3.38,3.81c0.58,0,1.21,0,1.78-0.05c0.69-0.05,1.09,0.26,1.09,0.89v5.22
	c0,0.47-0.23,0.88-0.63,0.94C120.04,47.61,118.78,47.77,117.23,47.77"/>
<path class="st0" d="M143.96,22.2c0-0.58,0.4-0.89,1.03-0.89h6.77c0.63,0,0.98,0.31,0.98,0.89v23.64c0,9.08-4.19,13.16-13.6,13.16
	c-4.88,0-8.32-0.84-11.42-2.87c-0.58-0.31-0.64-0.79-0.29-1.26l3.04-4.23c0.35-0.47,0.75-0.57,1.32-0.31
	c1.83,0.99,4.25,1.78,6.94,1.78c3.44,0,5.45-1.2,5.4-5.06c-1.61,0.42-3.39,0.73-5.22,0.73c-6.94,0-12.23-4.07-12.23-11.17V22.2
	c0-0.58,0.4-0.89,1.04-0.89h6.77c0.64,0,0.98,0.31,0.98,0.89v14.25c0,3.08,1.84,4.44,4.76,4.44c1.38,0,2.87-0.31,3.73-0.73V22.2z"/>
<polygon class="st1" points="167.28,12.62 162.9,11.44 161.83,7.39 170.44,4.61 "/>
<polygon class="st1" points="160.71,7.21 158.12,10.64 153.56,10.31 153.31,2 "/>
<polygon class="st1" points="153.02,11.22 155.81,14.52 154.05,18.36 145.29,16.01 "/>
<polygon class="st1" points="154.84,19.11 159.15,17.72 162.62,20.43 157.46,27.28 "/>
<polygon class="st1" points="163.65,19.98 163.53,15.82 167.43,13.65 173,20.24 "/>
</svg>
